<?xml version="1.0" encoding="UTF-8" standalone="no"?>
<!-- Created with Inkscape (http://www.inkscape.org/) -->

<svg
   xmlns:dc="http://purl.org/dc/elements/1.1/"
   xmlns:cc="http://creativecommons.org/ns#"
   xmlns:rdf="http://www.w3.org/1999/02/22-rdf-syntax-ns#"
   xmlns:svg="http://www.w3.org/2000/svg"
   xmlns="http://www.w3.org/2000/svg"
   xmlns:sodipodi="http://sodipodi.sourceforge.net/DTD/sodipodi-0.dtd"
   xmlns:inkscape="http://www.inkscape.org/namespaces/inkscape"
   width="64px"
   height="64px"
   id="svg2985"
   version="1.1"
   inkscape:version="0.48.4 r9939"
   sodipodi:docname="New document 2">
  <defs
     id="defs2987" />
  <sodipodi:namedview
     id="base"
     pagecolor="#ffffff"
     bordercolor="#666666"
     borderopacity="1.0"
     inkscape:pageopacity="0.0"
     inkscape:pageshadow="2"
     inkscape:zoom="3.8890873"
     inkscape:cx="53.670944"
     inkscape:cy="58.962994"
     inkscape:current-layer="layer1"
     showgrid="true"
     inkscape:document-units="px"
     inkscape:grid-bbox="true"
     inkscape:window-width="1366"
     inkscape:window-height="705"
     inkscape:window-x="-8"
     inkscape:window-y="-8"
     inkscape:window-maximized="1" />
  <metadata
     id="metadata2990">
    <rdf:RDF>
      <cc:Work
         rdf:about="">
        <dc:format>image/svg+xml</dc:format>
        <dc:type
           rdf:resource="http://purl.org/dc/dcmitype/StillImage" />
        <dc:title></dc:title>
      </cc:Work>
    </rdf:RDF>
  </metadata>
  <g
     id="layer1"
     inkscape:label="Layer 1"
     inkscape:groupmode="layer">
    <path
       style="fill:none;stroke:#000000;stroke-width:1px;stroke-linecap:butt;stroke-linejoin:miter;stroke-opacity:1"
       d="m 42.181818,8.1818182 c 0,0 -25.272727,-2.5454546 -22.363636,8.9090908 2.909091,11.454546 15.818182,13.818182 18.545454,11.272727 2.727273,-2.545454 16.181819,-13.454545 12.181819,-15.636363 -4,-2.181818 -8.363637,-4.5454548 -8.363637,-4.5454548 z"
       id="path3005"
       inkscape:connector-curvature="0" />
    <path
       style="fill:none;stroke:#000000;stroke-width:1px;stroke-linecap:butt;stroke-linejoin:miter;stroke-opacity:1"
       d="m 12.181818,22 c 0,0 16.909091,-1.090909 17.636364,-0.909091 0.727273,0.181818 8.909091,4 11.454545,10.545455 C 43.818182,38.181818 25.090909,50.909091 19.636364,47.454545 14.181818,44 -0.18181818,24.909091 4.9090909,22.727273 10,20.545455 12.181818,22 12.181818,22 z"
       id="path3007"
       inkscape:connector-curvature="0" />
    <path
       style="fill:none;stroke:#000000;stroke-width:1px;stroke-linecap:butt;stroke-linejoin:miter;stroke-opacity:1"
       d="m 58.909091,37.454545 c 0,0 -26.181818,-3.818181 -25.272727,4.181819 0.909091,8 8.181818,23.272727 14.181818,17.090909 6,-6.181818 17.636363,-7.454546 14.545454,-12 -3.090909,-4.545455 -3.454545,-9.272728 -3.454545,-9.272728 z"
       id="path3009"
       inkscape:connector-curvature="0" />
    <path
       style="fill:none;stroke:#000000;stroke-width:1px;stroke-linecap:butt;stroke-linejoin:miter;stroke-opacity:1"
       d="m 13.818182,36 c 0,0 -16.1818184,17.090909 -9.2727275,19.818182 C 11.454545,58.545455 22.727273,66 28,61.454545 33.272727,56.909091 47.272727,52.727273 42.727273,49.636364 38.181818,46.545455 13.818182,36 13.818182,36 z"
       id="path3011"
       inkscape:connector-curvature="0" />
    <path
       style="fill:none;stroke:#000000;stroke-width:1px;stroke-linecap:butt;stroke-linejoin:miter;stroke-opacity:1"
       d="m 12.909091,4.3636364 c 0,0 -11.4545455,7.6363636 -8.7272728,11.2727276 2.7272727,3.636363 8.3636368,11.272727 9.9999998,11.090909 1.636364,-0.181818 18.363637,-10 12.363637,-13.636364 -6,-3.6363635 -13.636364,-8.7272726 -13.636364,-8.7272726 z"
       id="path3013"
       inkscape:connector-curvature="0" />
    <path
       style="fill:none;stroke:#000000;stroke-width:1px;stroke-linecap:butt;stroke-linejoin:miter;stroke-opacity:1"
       d="m 55.818182,6 c 0,0 -15.272727,4.181818 -14.727273,11.454545 0.545455,7.272728 6,22 8.363636,23.818182 2.363637,1.818182 9.636364,-23.818182 8.181819,-26.545454 C 56.181818,12 55.818182,6 55.818182,6 z"
       id="path3015"
       inkscape:connector-curvature="0" />
    <path
       style="fill:#000000;fill-opacity:1"
       d="m 11.763636,21.2 c -0.2,-0.08594 -0.895454,-0.165586 -1.545454,-0.176985 L 9.0363636,21.00229 7.2181818,18.633177 C 4.7982147,15.47993 4.3996753,14.868032 4.4017762,14.309003 4.4064126,13.075253 6.2768404,10.522263 8.7675878,8.3500064 10.225107,7.0788596 12.695447,5.2 12.909242,5.2 c 0.09189,0 1.892209,1.125 4.000708,2.5 2.1085,1.375 3.968559,2.58268 4.133465,2.683734 0.262799,0.161041 0.215323,0.273319 -0.384398,0.909091 -0.376325,0.398946 -0.868998,1.134448 -1.094828,1.634448 -0.836373,1.851774 -0.754891,3.32477 0.346053,6.255813 l 0.618544,1.646749 -0.564393,0.08666 C 19.388391,21.004934 12.895096,21.39391 12.4,21.369633 12.25,21.362278 11.963636,21.285943 11.763636,21.2 z"
       id="path3017"
       inkscape:connector-curvature="0" />
    <path
       style="fill:#000000;fill-opacity:1"
       d="m 37.945455,25.833489 c -1.566943,-1.571071 -4.081802,-3.389716 -6.181819,-4.470441 l -1.818181,-0.935686 -2.531597,0.117701 -2.531596,0.117702 0.995737,-1.049564 c 2.381707,-2.510458 3.073084,-4.436762 2.112677,-5.886313 -0.332689,-0.50213 -3.340423,-2.700853 -4.043694,-2.956033 -0.31267,-0.113451 -0.01592,-0.283524 1.2871,-0.737667 3.002577,-1.0464905 6.102319,-1.4218392 11.802282,-1.429142 l 4.545454,-0.00582 1.181627,0.599082 c 2.248362,1.1399156 2.20272,0.9314646 0.545337,2.4906116 -2.962051,2.786486 -3.340356,4.96262 -1.914331,11.011865 l 0.417845,1.772508 -1.387966,1.227492 -1.387966,1.227492 -1.090909,-1.093784 z"
       id="path3019"
       inkscape:connector-curvature="0" />
    <path
       style="fill:#000000;fill-opacity:1"
       d="m 29.036364,42.15598 c -4.107242,-1.923371 -15.028488,-6.773529 -15.260762,-6.777349 -0.106581,-0.0017 -0.689941,0.54371 -1.296355,1.212141 L 11.376676,37.8061 10.002573,35.912141 C 7.1220962,31.941912 4.9969203,27.87164 4.5565236,25.481521 4.3512384,24.367399 4.3617819,24.246935 4.7048752,23.786534 c 0.2553304,-0.34263 0.8125037,-0.648927 1.804961,-0.992247 0.7895902,-0.273142 1.5642793,-0.498142 1.7215316,-0.5 0.1572522,-0.0019 0.8894337,0.699652 1.6270698,1.558911 2.2054754,2.569118 3.7154294,3.690063 4.6110314,3.423094 0.838836,-0.250048 3.400195,-1.648609 5.365015,-2.929422 l 2.070847,-1.349929 0.525778,0.637861 c 2.748156,3.333989 6.752373,5.552584 11.020444,6.106039 2.030211,0.263264 3.260043,0.13297 4.550869,-0.482139 1.147005,-0.546574 1.069118,-0.604801 2.231976,1.668571 0.652737,1.27609 0.731866,1.56075 0.644957,2.320192 -0.05448,0.476105 -0.34493,1.380814 -0.645433,2.010462 l -0.546369,1.144817 -1.397689,0.329505 c -1.7761,0.418717 -3.128729,1.016764 -3.969713,1.755157 -0.950584,0.834624 -1.091284,1.171648 -1.192878,2.857369 -0.08677,1.439698 -0.115757,1.523558 -0.636364,1.840952 l -0.545454,0.332544 -2.909091,-1.362291 0,0 z"
       id="path3021"
       inkscape:connector-curvature="0" />
    <path
       style="fill:#000000;fill-opacity:1"
       d="m 21.440861,19.790909 c -1.231106,-2.777774 -1.501913,-4.773259 -0.845102,-6.227273 0.369996,-0.819077 1.540097,-2.181818 1.873392,-2.181818 0.09744,0 1.10471,0.579004 2.238371,1.286676 2.37818,1.484545 2.755417,1.961811 2.404939,3.042639 -0.37832,1.16669 -1.279848,2.310772 -3.172264,4.025756 -1.575916,1.428158 -1.887337,1.434889 -2.499336,0.05402 z"
       id="path3023"
       inkscape:connector-curvature="0" />
    <path
       style="fill:#000000;fill-opacity:1"
       d="m 47.740169,35.977036 -0.750741,-0.06852 -0.59183,-1.49062 C 45.484451,32.11798 44.433903,29.127189 43.775824,26.953996 l -0.597541,-1.973276 2.941509,-2.935815 c 4.112199,-4.104237 5.51329,-6.048121 5.688616,-7.892433 0.112165,-1.179902 -0.26867,-1.609936 -2.454637,-2.771747 -0.974574,-0.517973 -1.834181,-1.000489 -1.910237,-1.072258 -0.182698,-0.172401 3.140008,-1.8022786 5.320102,-2.6096544 2.760367,-1.0222738 2.499004,-1.0396409 2.636856,0.1752146 0.283696,2.5001428 1.006366,5.7263858 1.495528,6.6765388 0.439584,0.853852 0.300857,3.090535 -0.407845,6.57564 -0.885656,4.355294 -2.84304,11.213943 -4.185147,14.664703 -0.107757,0.277058 -0.362109,0.314076 -1.967935,0.286416 -1.014301,-0.01747 -2.182017,-0.0626 -2.594924,-0.100289 l 0,0 z"
       id="path3025"
       inkscape:connector-curvature="0" />
    <path
       style="fill:#000000;fill-opacity:1"
       d="m 42.495263,22.19328 c -0.378769,-1.702493 -0.816381,-4.530207 -0.814959,-5.266007 0.0015,-0.773303 0.727515,-2.440974 1.460124,-3.35391 0.342765,-0.427134 1.134603,-1.183856 1.759641,-1.681604 l 1.136432,-0.904997 2.272659,1.224034 c 2.18172,1.175056 2.272658,1.247354 2.272658,1.806812 0,1.40885 -1.939435,3.943437 -6.025544,7.874599 l -1.752816,1.686348 -0.308195,-1.385275 z"
       id="path3027"
       inkscape:connector-curvature="0" />
    <path
       style="fill:#000000;fill-opacity:1"
       d="m 43.501356,59.189224 c -1.103982,-0.50082 -2.210733,-1.440922 -3.181367,-2.702335 L 39.505884,55.4289 41.00601,54.512199 c 1.771205,-1.082352 2.958844,-2.291581 3.126053,-3.18288 0.271714,-1.448362 -0.623539,-2.17322 -6.038933,-4.889533 L 34.786261,44.78109 34.661833,44.04461 c -0.120739,-0.714651 -0.09817,-0.758007 0.761415,-1.462871 1.034984,-0.848687 3.779482,-3.565093 4.49122,-4.445248 0.434562,-0.537391 0.636278,-0.627512 1.716259,-0.766779 0.6731,-0.0868 2.001091,-0.15837 2.951091,-0.15905 l 1.727273,-0.0012 0.818182,1.648566 c 1.949137,3.927341 3.107357,4.029439 4.925558,0.43419 0.945484,-1.869568 0.979874,-1.910911 1.5209,-1.828351 0.304447,0.04646 1.505993,0.178546 2.6701,0.293528 l 2.11656,0.209058 0.215316,1.116792 c 0.466451,2.419351 1.704609,5.495925 3.092678,7.684682 1.251815,1.973907 0.564488,2.719746 -5.249605,5.696503 -4.63694,2.374067 -6.691569,3.66588 -8.564889,5.385023 -1.932278,1.773251 -2.804932,2.041873 -4.352535,1.339808 l 0,0 z"
       id="path3029"
       inkscape:connector-curvature="0" />
    <path
       style="fill:#000000;fill-opacity:1"
       d="M 21.240994,62.019918 C 18.78289,61.508824 15.634043,60.303947 11.036639,58.115322 9.5396836,57.402685 7.4545033,56.444154 6.4029053,55.985252 4.012923,54.942298 3.4909091,54.441879 3.4909091,53.193717 c 0,-1.175765 0.6926722,-3.141059 1.7766453,-5.040812 1.3636147,-2.389849 5.6541126,-8.225632 6.0475266,-8.225632 0.08077,0 0.837554,0.838636 1.681749,1.863636 2.020741,2.453532 5.253152,5.547633 6.492688,6.214876 0.892195,0.48027 1.152858,0.532113 2.632189,0.523512 2.440228,-0.01418 4.582004,-0.690087 8.142978,-2.569758 l 1.955595,-1.032266 0.831871,0.454545 c 0.824914,0.450745 0.837905,0.472777 1.553371,2.634719 0.396823,1.199095 1.245776,3.24455 1.886558,4.545455 1.335993,2.712303 1.397555,2.416947 -0.728444,3.494803 -2.522151,1.2787 -5.725454,3.168249 -7.356443,4.339381 -0.914688,0.656793 -1.965495,1.3209 -2.335129,1.475795 -0.927635,0.388724 -3.3206,0.462007 -4.83107,0.147947 z"
       id="path3031"
       inkscape:connector-curvature="0" />
    <path
       style="fill:#000000;fill-opacity:1"
       d="m 20.254537,47.077834 c -1.053565,-0.519231 -3.577472,-2.881065 -5.594176,-5.234945 -2.778478,-3.243016 -2.611054,-2.877502 -1.771667,-3.867832 0.389802,-0.459899 0.833168,-0.914672 0.985257,-1.010608 0.204187,-0.128797 1.985801,0.588669 6.810379,2.742576 7.985845,3.565239 9.897488,4.455143 9.897488,4.607459 0,0.152634 -2.528783,1.466894 -3.818182,1.984387 -2.616117,1.049964 -5.306032,1.371874 -6.509099,0.778963 z"
       id="path3033"
       inkscape:connector-curvature="0" />
    <path
       style="fill:#000000;fill-opacity:1"
       d="M 11.865297,24.156777 C 9.86346,22.118228 9.7964739,21.89013 11.335684,22.353364 c 0.721559,0.217158 1.403075,0.217055 4.726451,-7.09e-4 C 18.197961,22.212705 20.15,22.12265 20.4,22.152533 c 0.381803,0.04564 0.161899,0.247106 -1.374121,1.258917 -1.900119,1.25165 -4.580861,2.697641 -5.001193,2.697641 -0.133228,0 -1.104953,-0.878542 -2.159389,-1.952314 z"
       id="path3035"
       inkscape:connector-curvature="0" />
    <path
       style="fill:#000000;fill-opacity:1"
       d="m 31.945455,28.274828 c -1.80317,-0.438088 -4.729868,-1.882407 -6.19598,-3.057702 -1.455236,-1.166577 -2.922576,-2.880388 -2.67668,-3.126285 0.102578,-0.102578 1.630757,-0.232021 3.437755,-0.291191 l 3.253086,-0.106522 1.181819,0.595145 c 1.805909,0.909428 4.265365,2.66099 5.799377,4.130169 1.32642,1.270362 1.368045,1.335195 1.027203,1.599926 -0.925527,0.718854 -3.463561,0.830567 -5.82658,0.25646 z"
       id="path3037"
       inkscape:connector-curvature="0" />
    <path
       style="fill:#000000;fill-opacity:1"
       d="m 32.460292,28.283002 c -1.869608,-0.369741 -5.001515,-1.905888 -6.827418,-3.348734 -1.01425,-0.80147 -2.600601,-2.608965 -2.435054,-2.774512 0.04559,-0.04559 1.533915,-0.157327 3.307393,-0.248308 l 3.224505,-0.165419 1.198777,0.665555 c 1.591938,0.883836 3.15773,1.934233 4.380596,2.93868 1.270828,1.043843 2.545454,2.252296 2.545454,2.413305 0,0.06832 -0.328928,0.255831 -0.730952,0.416689 -0.79247,0.317084 -3.300112,0.372333 -4.663301,0.102744 z"
       id="path3039"
       inkscape:connector-curvature="0" />
    <path
       style="fill:#000000;fill-opacity:1"
       d=""
       id="path3041"
       inkscape:connector-curvature="0" />
    <path
       style="fill:#000000;fill-opacity:1"
       d=""
       id="path3043"
       inkscape:connector-curvature="0" />
    <path
       style="fill:#000000;fill-opacity:1"
       d="m 50.040452,40.427273 c -0.0027,-0.209831 -0.146817,-0.318182 -0.423222,-0.318182 -0.332585,0 -0.576622,-0.28159 -1.181818,-1.363683 -0.419477,-0.750026 -0.762685,-1.404572 -0.762685,-1.454546 0,-0.136924 3.320323,-0.08392 3.651122,0.05828 0.244733,0.105206 0.170986,0.366929 -0.495912,1.759948 -0.430868,0.9 -0.785236,1.493182 -0.787485,1.318182 l 0,0 z"
       id="path3045"
       inkscape:connector-curvature="0" />
    <path
       style="fill:#000000;fill-opacity:1"
       d="m 49.343966,39.790909 c -0.202976,-0.175 -0.628941,-0.788636 -0.94659,-1.363636 l -0.577543,-1.045455 1.744629,0 c 1.066863,0 1.744629,0.07218 1.744629,0.185811 0,0.455998 -1.093083,2.541462 -1.332091,2.541462 -0.145193,0 -0.430059,-0.143182 -0.633034,-0.318182 z"
       id="path3047"
       inkscape:connector-curvature="0" />
    <path
       style="fill:#000000;fill-opacity:1"
       d="m 37.600259,52.05607 c -1.076536,-2.199521 -2.405083,-5.583343 -2.192117,-5.583343 0.163663,0 4.15887,2.034544 5.446403,2.77356 1.55743,0.893932 2.09091,1.361286 2.09091,1.83174 0,0.497336 -1.155327,1.549443 -2.793764,2.544162 l -1.376028,0.835406 -1.175404,-2.401525 z"
       id="path3049"
       inkscape:connector-curvature="0" />
    <path
       style="fill:#000000;fill-opacity:1"
       d="m 34.218182,41.421834 c 0,-0.792617 0.279357,-1.433341 0.861784,-1.976559 0.514903,-0.480239 1.917167,-1.174155 2.838112,-1.404452 l 0.518079,-0.129553 -0.383761,0.538942 c -0.211069,0.296419 -1.016931,1.094431 -1.790806,1.77336 -2.22966,1.956108 -2.043408,1.84689 -2.043408,1.198262 z"
       id="path3051"
       inkscape:connector-curvature="0" />
  </g>
</svg>
